<svg width="500" height="500" viewBox="0 0 500 500" fill="none" xmlns="http://www.w3.org/2000/svg">
<rect width="500" height="500" fill="white"/>
<circle cx="17.5" cy="17.5" r="17.5" fill="black"/>
<g clip-path="url(#clip0_21_2)">
<path d="M19.5583 23.6457L19.5424 16.8986L15.5585 16.7645L15.0837 23.4999C14.721 23.5649 14.4505 23.8707 14.4289 24.2391L13.9702 28.3996C13.9136 28.923 14.229 29.3811 14.6517 29.3954L19.5906 29.5592C20.0158 29.5711 20.3537 29.1423 20.3401 28.6092L20.1764 24.4423C20.1861 24.0639 19.928 23.7311 19.5587 23.6457L19.5583 23.6457Z" fill="white"/>
<path d="M21.2754 9.98921L14.668 9.75704C14.4037 9.74997 14.1568 9.62553 13.9936 9.41815C13.6562 8.96294 13.1286 8.68798 12.5619 8.67193C11.5282 8.63834 10.6618 9.44823 10.6258 10.4819L10.5471 12.8188C10.5153 13.852 11.324 14.7171 12.357 14.7549C12.9218 14.7752 13.4642 14.5375 13.8331 14.1091C14.0094 13.9126 14.2653 13.805 14.5288 13.8163C14.6758 13.8213 14.8148 13.8843 14.9151 13.9917C15.0154 14.099 15.069 14.2419 15.0641 14.3889L15.0169 15.7881L20.1476 15.9609L20.1879 14.5493C20.1922 14.4029 20.2552 14.2639 20.3619 14.1642C20.4687 14.0644 20.6115 14.0109 20.7579 14.0164L24.771 14.1515L24.7777 13.7359C24.8082 12.7756 24.4572 11.8415 23.8006 11.139C23.1439 10.4366 22.2354 10.0235 21.2753 9.98938L21.2754 9.98921Z" fill="white"/>
</g>
<path fill-rule="evenodd" clip-rule="evenodd" d="M65.8723 14.8116C67.1996 13.2436 68 11.2153 68 9C68 4.02944 63.9706 0 59 0C54.0294 0 50 4.02944 50 9C50 13.9706 54.0294 18 59 18C61.2153 18 63.2436 17.1996 64.8116 15.8723L67.4697 18.5303C67.7626 18.8232 68.2374 18.8232 68.5303 18.5303C68.8232 18.2374 68.8232 17.7626 68.5303 17.4697L65.8723 14.8116ZM66.5 9C66.5 13.1421 63.1421 16.5 59 16.5C54.8579 16.5 51.5 13.1421 51.5 9C51.5 4.85786 54.8579 1.5 59 1.5C63.1421 1.5 66.5 4.85786 66.5 9Z" fill="black"/>
<path fill-rule="evenodd" clip-rule="evenodd" d="M79.5458 4.97986L83.9444 0.764533C85.0081 -0.254843 86.6862 -0.254845 87.7499 0.764532L92.1485 4.97986H94.6942C95.3027 4.97986 95.7702 5.51885 95.6841 6.12128L94.2151 16.4041C94.004 17.8821 92.7382 18.9799 91.2453 18.9799H80.4491C78.9561 18.9799 77.6904 17.8821 77.4792 16.4041L76.0102 6.12128C75.9242 5.51885 76.3916 4.97986 77.0002 4.97986H79.5458ZM84.9823 1.84752C85.4658 1.38416 86.2285 1.38416 86.712 1.84751L89.9806 4.97986H81.7137L84.9823 1.84752ZM77.5767 6.47986L78.9641 16.192C79.0697 16.931 79.7026 17.4799 80.4491 17.4799H91.2453C91.9918 17.4799 92.6246 16.931 92.7302 16.192L94.1177 6.47986H77.5767Z" fill="black"/>
<path fill-rule="evenodd" clip-rule="evenodd" d="M81.8472 9.22998C82.2614 9.22998 82.5972 9.56577 82.5972 9.97998V13.98C82.5972 14.3942 82.2614 14.73 81.8472 14.73C81.433 14.73 81.0972 14.3942 81.0972 13.98V9.97998C81.0972 9.56577 81.433 9.22998 81.8472 9.22998Z" fill="black"/>
<path fill-rule="evenodd" clip-rule="evenodd" d="M85.8472 9.22998C86.2614 9.22998 86.5972 9.56577 86.5972 9.97998V13.98C86.5972 14.3942 86.2614 14.73 85.8472 14.73C85.433 14.73 85.0972 14.3942 85.0972 13.98V9.97998C85.0972 9.56577 85.433 9.22998 85.8472 9.22998Z" fill="black"/>
<path fill-rule="evenodd" clip-rule="evenodd" d="M89.8472 9.22998C90.2614 9.22998 90.5972 9.56577 90.5972 9.97998V13.98C90.5972 14.3942 90.2614 14.73 89.8472 14.73C89.433 14.73 89.0972 14.3942 89.0972 13.98V9.97998C89.0972 9.56577 89.433 9.22998 89.8472 9.22998Z" fill="black"/>
<path fill-rule="evenodd" clip-rule="evenodd" d="M58.75 38.5C60.683 38.5 62.25 36.933 62.25 35C62.25 33.067 60.683 31.5 58.75 31.5C56.817 31.5 55.25 33.067 55.25 35C55.25 36.933 56.817 38.5 58.75 38.5ZM58.75 40C61.5114 40 63.75 37.7614 63.75 35C63.75 32.2386 61.5114 30 58.75 30C55.9886 30 53.75 32.2386 53.75 35C53.75 37.7614 55.9886 40 58.75 40Z" fill="black"/>
<path fill-rule="evenodd" clip-rule="evenodd" d="M55.75 43.75C53.4028 43.75 51.5 45.6528 51.5 48V49C51.5 49.4142 51.1642 49.75 50.75 49.75C50.3358 49.75 50 49.4142 50 49V48C50 44.8244 52.5744 42.25 55.75 42.25H61.75C64.9256 42.25 67.5 44.8244 67.5 48V49C67.5 49.4142 67.1642 49.75 66.75 49.75C66.3358 49.75 66 49.4142 66 49V48C66 45.6528 64.0972 43.75 61.75 43.75H55.75Z" fill="black"/>
<path d="M75 42H99M99 42L92 35M99 42L92 49" stroke="#3D3D3F" stroke-width="1.5"/>
<defs>
<clipPath id="clip0_21_2">
<rect width="22" height="22" fill="white" transform="translate(17.5236 2.45239) rotate(46.9289)"/>
</clipPath>
</defs>
</svg>
